<svg width="525" height="143" viewBox="0 0 525 143" fill="none" xmlns="http://www.w3.org/2000/svg">
<g clip-path="url(#clip0_306_75)">
<path d="M500.304 142.571C494.795 142.571 490.038 141.426 486.032 139.137C482.049 136.824 478.985 133.557 476.839 129.336C474.693 125.091 473.62 120.096 473.62 114.349C473.62 108.697 474.693 103.737 476.839 99.4684C479.009 95.1761 482.037 91.8376 485.924 89.4529C489.811 87.0445 494.378 85.8402 499.624 85.8402C503.01 85.8402 506.206 86.3887 509.21 87.4856C512.239 88.5587 514.91 90.228 517.223 92.4934C519.56 94.7588 521.396 97.6442 522.731 101.15C524.067 104.631 524.734 108.78 524.734 113.597V117.568H479.7V108.84H512.322C512.298 106.36 511.762 104.154 510.713 102.223C509.663 100.267 508.197 98.7292 506.313 97.6084C504.453 96.4876 502.283 95.9272 499.803 95.9272C497.156 95.9272 494.831 96.5711 492.828 97.8588C490.825 99.1227 489.263 100.792 488.142 102.867C487.045 104.917 486.485 107.171 486.461 109.627V117.246C486.461 120.441 487.045 123.184 488.214 125.473C489.382 127.738 491.015 129.479 493.114 130.695C495.212 131.888 497.669 132.484 500.482 132.484C502.366 132.484 504.071 132.221 505.598 131.697C507.124 131.148 508.447 130.349 509.568 129.3C510.689 128.251 511.535 126.951 512.108 125.401L524.198 126.761C523.435 129.956 521.98 132.746 519.834 135.131C517.711 137.491 514.993 139.328 511.678 140.639C508.364 141.927 504.572 142.571 500.304 142.571Z" fill="white"/>
<path d="M431.577 109.305V141.498H418.629V86.5556H431.005V95.8915H431.649C432.913 92.8153 434.928 90.371 437.694 88.5587C440.484 86.7464 443.93 85.8402 448.031 85.8402C451.823 85.8402 455.126 86.651 457.939 88.2725C460.777 89.8941 462.971 92.243 464.521 95.3192C466.095 98.3953 466.87 102.127 466.846 106.515V141.498H453.897V108.518C453.897 104.846 452.944 101.972 451.036 99.8977C449.152 97.823 446.541 96.7857 443.202 96.7857C440.937 96.7857 438.922 97.2865 437.157 98.288C435.416 99.2657 434.045 100.685 433.044 102.545C432.066 104.405 431.577 106.658 431.577 109.305Z" fill="white"/>
<path d="M385.341 142.571C379.976 142.571 375.326 141.39 371.391 139.03C367.456 136.669 364.404 133.366 362.234 129.121C360.088 124.877 359.015 119.917 359.015 114.241C359.015 108.566 360.088 103.594 362.234 99.3253C364.404 95.0568 367.456 91.7422 371.391 89.3814C375.326 87.0206 379.976 85.8402 385.341 85.8402C390.706 85.8402 395.357 87.0206 399.291 89.3814C403.226 91.7422 406.266 95.0568 408.412 99.3253C410.582 103.594 411.667 108.566 411.667 114.241C411.667 119.917 410.582 124.877 408.412 129.121C406.266 133.366 403.226 136.669 399.291 139.03C395.357 141.39 390.706 142.571 385.341 142.571ZM385.413 132.198C388.322 132.198 390.754 131.399 392.71 129.801C394.665 128.179 396.12 126.009 397.073 123.291C398.051 120.572 398.54 117.544 398.54 114.205C398.54 110.843 398.051 107.803 397.073 105.084C396.12 102.342 394.665 100.16 392.71 98.5384C390.754 96.9169 388.322 96.1061 385.413 96.1061C382.432 96.1061 379.952 96.9169 377.973 98.5384C376.017 100.16 374.551 102.342 373.573 105.084C372.619 107.803 372.142 110.843 372.142 114.205C372.142 117.544 372.619 120.572 373.573 123.291C374.551 126.009 376.017 128.179 377.973 129.801C379.952 131.399 382.432 132.198 385.413 132.198Z" fill="white"/>
<path d="M298.909 141.498V133.235L336.467 79.3659H298.694V68.2416H352.921V76.5044L315.399 130.373H353.136V141.498H298.909Z" fill="white"/>
<path d="M247.384 142.571C241.875 142.571 237.118 141.426 233.112 139.137C229.129 136.824 226.065 133.557 223.919 129.336C221.773 125.091 220.7 120.096 220.7 114.349C220.7 108.697 221.773 103.737 223.919 99.4684C226.089 95.1761 229.117 91.8376 233.004 89.4529C236.891 87.0445 241.458 85.8402 246.704 85.8402C250.09 85.8402 253.286 86.3887 256.29 87.4856C259.319 88.5587 261.99 90.228 264.303 92.4934C266.64 94.7588 268.476 97.6442 269.811 101.15C271.147 104.631 271.814 108.78 271.814 113.597V117.568H226.78V108.84H259.402C259.378 106.36 258.842 104.154 257.793 102.223C256.743 100.267 255.277 98.7292 253.393 97.6084C251.533 96.4876 249.363 95.9272 246.883 95.9272C244.236 95.9272 241.911 96.5711 239.908 97.8588C237.905 99.1227 236.343 100.792 235.222 102.867C234.125 104.917 233.565 107.171 233.541 109.627V117.246C233.541 120.441 234.125 123.184 235.294 125.473C236.462 127.738 238.096 129.479 240.194 130.695C242.293 131.888 244.749 132.484 247.563 132.484C249.446 132.484 251.151 132.221 252.678 131.697C254.204 131.148 255.527 130.349 256.648 129.3C257.769 128.251 258.615 126.951 259.188 125.401L271.278 126.761C270.515 129.956 269.06 132.746 266.914 135.131C264.792 137.491 262.073 139.328 258.758 140.639C255.444 141.927 251.652 142.571 247.384 142.571Z" fill="white"/>
<path d="M200.826 118.391V86.5556H213.774V141.498H201.219V131.733H200.647C199.407 134.809 197.368 137.325 194.53 139.28C191.716 141.235 188.247 142.213 184.121 142.213C180.521 142.213 177.337 141.414 174.571 139.817C171.829 138.195 169.682 135.846 168.132 132.77C166.582 129.67 165.807 125.926 165.807 121.538V86.5556H178.756V119.535C178.756 123.017 179.71 125.783 181.618 127.834C183.525 129.884 186.029 130.91 189.129 130.91C191.037 130.91 192.885 130.445 194.673 129.515C196.462 128.585 197.928 127.202 199.073 125.366C200.242 123.506 200.826 121.181 200.826 118.391Z" fill="white"/>
<path d="M156.521 68.2416V141.498H143.573V68.2416H156.521Z" fill="white"/>
<path d="M81.9735 141.498V68.2416H110.017C115.311 68.2416 119.71 69.0762 123.216 70.7454C126.745 72.3908 129.38 74.6443 131.121 77.5059C132.886 80.3675 133.768 83.6106 133.768 87.2352C133.768 90.216 133.196 92.7676 132.051 94.8899C130.906 96.9884 129.368 98.6934 127.437 100.005C125.505 101.317 123.347 102.258 120.962 102.831V103.546C123.562 103.689 126.054 104.488 128.438 105.943C130.847 107.373 132.814 109.4 134.34 112.024C135.866 114.647 136.629 117.818 136.629 121.538C136.629 125.33 135.711 128.74 133.875 131.768C132.039 134.773 129.273 137.146 125.577 138.886C121.88 140.627 117.23 141.498 111.626 141.498H81.9735ZM95.244 130.409H109.516C114.333 130.409 117.803 129.491 119.925 127.655C122.071 125.795 123.144 123.41 123.144 120.501C123.144 118.331 122.608 116.376 121.535 114.635C120.462 112.87 118.935 111.487 116.956 110.485C114.977 109.46 112.616 108.947 109.874 108.947H95.244V130.409ZM95.244 99.3969H108.371C110.661 99.3969 112.723 98.9796 114.56 98.1449C116.396 97.2865 117.838 96.0822 118.888 94.5322C119.961 92.9584 120.497 91.0983 120.497 88.9522C120.497 86.1144 119.496 83.7775 117.493 81.9413C115.513 80.1052 112.568 79.1871 108.658 79.1871H95.244V99.3969Z" fill="white"/>
<path d="M46 14.0778C44.2409 12.7237 42.0797 11.4453 40.2402 11.1398C39.3107 10.9855 38.6129 11.9963 39.1081 12.7836C48.9909 28.4493 -2.92831 31.2015 19.6545 51.8205C20.3299 52.4377 21.3976 51.4269 21.1821 50.5483C17.9597 37.3481 40.9959 33.0216 47.563 23.7323C49.7435 20.6432 49.0134 16.3985 46 14.0778Z" fill="white"/>
<path d="M31.409 0.125444C31.3415 0.100252 31.2772 0.0750612 31.2128 0.0530189C30.7015 -0.12332 30.203 0.153784 30.1773 0.682799C29.9264 5.56989 -3.06659 18.9118 15.7213 27.3414C16.4546 27.672 17.2843 27.0549 17.1106 26.2834C15.6152 19.6801 27.0931 15.6621 33.0942 10.6617C36.7379 7.62298 35.8696 1.82585 31.4122 0.122295L31.409 0.125444Z" fill="white"/>
<path d="M30.8334 63.0185C30.9523 63.0657 31.0713 63.1098 31.1903 63.1507C32.0619 63.4436 31.9911 62.5115 32.4446 61.7243C35.5384 56.327 64.3892 43.9078 46.7397 35.8907C45.9647 35.538 45.1028 36.1961 45.2732 37.018C46.6111 43.5456 35.2554 47.5448 29.2864 52.5074C25.6781 55.5083 26.4564 61.2614 30.8366 63.0185H30.8334Z" fill="white"/>
<path d="M25.2825 19.2348C25.2825 20.2235 26.1037 21.025 27.1167 21.025H32.1841C33.1971 21.025 34.0183 20.2235 34.0183 19.2348C34.0183 18.246 33.1971 17.4445 32.1841 17.4445H27.1167C26.1037 17.4445 25.2825 18.246 25.2825 19.2348Z" fill="white"/>
<path d="M21.7598 24.3378C21.7598 25.3265 22.581 26.1281 23.594 26.1281H26.5042C27.5173 26.1281 28.3385 25.3265 28.3385 24.3378C28.3385 23.3491 27.5173 22.5476 26.5042 22.5476H23.594C22.581 22.5476 21.7598 23.3491 21.7598 24.3378Z" fill="white"/>
<path d="M34.8998 43.8072C34.8998 42.8185 34.0786 42.0169 33.0656 42.0169H27.9982C26.9852 42.0169 26.1639 42.8185 26.1639 43.8072C26.1639 44.7959 26.9852 45.5974 27.9982 45.5974H33.0656C34.0786 45.5974 34.8998 44.7959 34.8998 43.8072Z" fill="white"/>
<path d="M38.4222 38.7039C38.4222 37.7152 37.601 36.9136 36.588 36.9136H33.6777C32.6647 36.9136 31.8435 37.7152 31.8435 38.7039C31.8435 39.6926 32.6647 40.4941 33.6778 40.4941H36.588C37.601 40.4941 38.4222 39.6926 38.4222 38.7039Z" fill="white"/>
<path fill-rule="evenodd" clip-rule="evenodd" d="M60.8679 68.0156C41.0344 68.0293 21.2003 67.9913 1.3669 68.0474C1.23521 68.0474 1.11524 68.0466 1.00611 68.0459C0.428033 68.0421 0.153847 68.0403 0.0508812 68.1689C-0.0420201 68.285 0.00446277 68.5074 0.0928851 68.9304C0.131274 69.114 0.177568 69.3354 0.223793 69.6024C1.84961 76.1938 9.10328 85.5927 15.3648 87.749C16.1982 87.9653 17.0185 88.2706 17.7868 88.6523C21.8299 90.6562 22.5656 94.4158 19.5837 97.6856C18.4183 98.9643 18.4379 99.3651 19.7075 100.523C22.162 102.768 22.455 105.739 20.4627 108.367C20.3989 108.45 20.3354 108.533 20.2719 108.617C19.9466 109.046 19.62 109.476 19.2387 109.849C18.3077 110.759 18.4444 111.439 19.3819 112.336C22.4354 115.262 22.4224 118.151 19.4666 121.204L19.4509 121.22C18.2484 122.464 18.1762 122.539 19.3949 123.787C20.8468 125.269 21.3546 126.917 21.27 128.965C21.1797 131.198 21.1865 133.435 21.1932 135.671C21.1977 137.143 21.2021 138.615 21.1789 140.085C21.1658 141.09 21.4458 141.478 22.5396 141.472C28.2299 141.434 33.9202 141.44 39.6106 141.497C40.7304 141.51 41.1145 141.198 41.0885 140.072C41.0595 138.733 41.0718 137.392 41.084 136.051V136.048C41.0993 134.372 41.1145 132.695 41.0494 131.02C40.9387 128.049 40.9518 125.193 43.5235 123.036C44.0899 122.559 43.9792 122.127 43.3216 121.662C40.4049 119.595 39.6171 115.485 42.5925 112.527C44.163 110.967 44.0904 110.886 42.5681 109.191L42.5534 109.174C39.884 106.197 39.9752 102.997 42.8138 100.491C44.2657 99.206 44.2657 98.9834 42.8073 97.6475C40.4309 95.4845 40.2486 93.1372 42.2344 90.6307C43.3086 89.2757 44.7475 88.5123 46.3947 88.0162C49.9365 86.9474 52.4444 84.4869 55.1268 81.8087C58.7536 77.6586 60.1293 74.8511 62.1303 69.6024C62.1723 69.3758 62.2128 69.1813 62.2476 69.0143C62.3501 68.522 62.4028 68.269 62.297 68.1405C62.1854 68.005 61.8978 68.0076 61.3068 68.013C61.1759 68.0142 61.03 68.0156 60.8679 68.0156ZM35.0129 122.715C35.6858 122.715 36.2312 123.248 36.2312 123.904C36.2312 124.561 35.6858 125.094 35.0129 125.094H32.8198C32.147 125.094 31.6015 124.561 31.6015 123.904C31.6015 123.248 32.147 122.715 32.8198 122.715H35.0129ZM29.1648 123.904C29.1648 123.248 28.6193 122.715 27.9464 122.715H27.7027C27.0299 122.715 26.4844 123.248 26.4844 123.904C26.4844 124.561 27.0299 125.094 27.7027 125.094H27.9464C28.6193 125.094 29.1648 124.561 29.1648 123.904ZM35.0129 127.71C35.6858 127.71 36.2312 128.242 36.2312 128.899C36.2312 129.556 35.6858 130.088 35.0129 130.088H29.8958C29.2229 130.088 28.6774 129.556 28.6774 128.899C28.6774 128.242 29.2229 127.71 29.8958 127.71H35.0129ZM33.5508 133.893C33.5508 133.237 33.0054 132.704 32.3325 132.704H27.7027C27.0299 132.704 26.4844 133.237 26.4844 133.893C26.4844 134.55 27.0299 135.082 27.7027 135.082H32.3325C33.0054 135.082 33.5508 134.55 33.5508 133.893ZM27.7027 104.641C27.0299 104.641 26.4844 105.173 26.4844 105.83C26.4844 106.487 27.0299 107.019 27.7027 107.019H29.8958C30.5687 107.019 31.1141 106.487 31.1141 105.83C31.1141 105.173 30.5687 104.641 29.8958 104.641H27.7027ZM33.5508 105.83C33.5508 105.173 34.0963 104.641 34.7692 104.641H35.0129C35.6858 104.641 36.2312 105.173 36.2312 105.83C36.2312 106.487 35.6858 107.019 35.0129 107.019H34.7692C34.0963 107.019 33.5508 106.487 33.5508 105.83ZM27.7027 109.635C27.0299 109.635 26.4844 110.167 26.4844 110.824C26.4844 111.481 27.0299 112.013 27.7027 112.013H32.8198C33.4927 112.013 34.0382 111.481 34.0382 110.824C34.0382 110.167 33.4927 109.635 32.8198 109.635H27.7027ZM29.1648 115.818C29.1648 115.162 29.7102 114.629 30.3831 114.629H35.0129C35.6857 114.629 36.2312 115.162 36.2312 115.818C36.2312 116.475 35.6857 117.008 35.0129 117.008H30.3831C29.7102 117.008 29.1648 116.475 29.1648 115.818ZM34.9511 91.5245C35.6239 91.5245 36.1694 92.0569 36.1694 92.7136C36.1694 93.3704 35.6239 93.9027 34.9511 93.9027H29.834C29.1611 93.9027 28.6156 93.3704 28.6156 92.7136C28.6156 92.0569 29.1611 91.5245 29.834 91.5245H34.9511ZM33.489 97.7079C33.489 97.0512 32.9436 96.5188 32.2707 96.5188H27.641C26.9681 96.5188 26.4226 97.0512 26.4226 97.7079C26.4226 98.3647 26.9681 98.8971 27.641 98.8971H32.2707C32.9436 98.8971 33.489 98.3647 33.489 97.7079ZM47.6897 80.8382C52.0538 78.5413 53.1254 76.734 53.1254 73.4856H9.3533C9.3533 76.734 10.4161 78.5413 14.7802 80.8382C16.2373 81.6051 18.0804 82.0212 20.048 82.4654C23.3526 83.2114 27.0083 84.0368 29.7767 86.7365C30.5551 87.4956 31.9179 87.4981 32.6935 86.7363C35.5103 83.9693 39.1618 83.1639 42.4578 82.437C44.4085 82.0068 46.2348 81.604 47.6897 80.8382Z" fill="white"/>
</g>
<defs>
<clipPath id="clip0_306_75">
<rect width="525" height="143" fill="white"/>
</clipPath>
</defs>
</svg>
